<?xml version="1.0" encoding="utf-8"?>
<!-- Generator: Adobe Illustrator 16.0.0, SVG Export Plug-In . SVG Version: 6.00 Build 0)  -->
<!DOCTYPE svg PUBLIC "-//W3C//DTD SVG 1.1//EN" "http://www.w3.org/Graphics/SVG/1.1/DTD/svg11.dtd">
<svg version="1.1" id="Layer_1" xmlns="http://www.w3.org/2000/svg" xmlns:xlink="http://www.w3.org/1999/xlink" x="0px" y="0px"
	 width="1728px" height="1728px" viewBox="0 0 1728 1728" enable-background="new 0 0 1728 1728" xml:space="preserve">
<line fill="none" stroke="#CDDC37" stroke-width="72" stroke-miterlimit="10" x1="347.188" y1="721" x2="831.078" y2="721"/>
<line fill="none" stroke="#CDDC37" stroke-width="72" stroke-miterlimit="10" x1="345.321" y1="997" x2="829.212" y2="997"/>
<g>
	<path fill="none" stroke="#CDDC37" stroke-width="72" stroke-miterlimit="10" d="M553.078,172.266H860c79.2,0,144,64.8,144,144
		V1065c0,79.2-64.8,144-144,144H318c-79.2,0-144-64.8-144-144V553.079"/>
</g>
<polyline fill="none" stroke="#CDDC37" stroke-width="72" stroke-miterlimit="10" points="174,553.079 174,402.65 419.392,172.266 
	553.078,172.266 "/>
<g>
	<g>
		<path fill="#00ACC1" d="M1110.078,516.789H1417c79.2,0,144,64.8,144,144v748.734c0,79.2-64.8,144-144,144H875
			c-79.2,0-144-64.8-144-144V897.602"/>
		<path fill="none" stroke="#00ACC1" stroke-width="72" stroke-miterlimit="10" d="M1110.078,516.789H1417c79.2,0,144,64.8,144,144
			v748.734c0,79.2-64.8,144-144,144H875c-79.2,0-144-64.8-144-144V897.602"/>
	</g>
	<polyline fill="#00ACC1" stroke="#00ACC1" stroke-width="72" stroke-miterlimit="10" points="731,897.602 731,747.174 
		976.391,516.789 1110.078,516.789 	"/>
</g>
<path fill="none" stroke="#000000" stroke-width="72" stroke-miterlimit="10" d="M1413.925,425.065"/>
<path fill="none" stroke="#000000" stroke-width="72" stroke-miterlimit="10" d="M1208.056,236.562"/>
<path fill="none" stroke="#000000" stroke-width="72" stroke-miterlimit="10" d="M1450.977,252.29"/>
<g>
	<path fill="none" stroke="#000000" stroke-width="72" stroke-miterlimit="10" d="M455,1483.945H352.572
		c-39.6,0-80.112-7.493-90.027-16.651s-18.027-47.655-18.027-85.55s0-68.898,0-68.898"/>
</g>
<polygon fill="none" stroke="#000000" stroke-width="72" stroke-miterlimit="10" points="455,1513.68 455,1456.287 
	504.704,1484.984 "/>
<g>
	<path fill="none" stroke="#000000" stroke-width="72" stroke-miterlimit="10" d="M1279.518,242.164h102.428
		c39.6,0,80.112,7.493,90.027,16.651S1490,306.471,1490,344.365s0,68.898,0,68.898"/>
</g>
<polygon fill="none" stroke="#000000" stroke-width="72" stroke-miterlimit="10" points="1279.518,212.43 1279.518,269.822 
	1229.813,241.125 "/>
<line fill="none" stroke="#CDDC37" stroke-width="72" stroke-miterlimit="10" x1="349.188" y1="445" x2="833.078" y2="445"/>
<path fill="none" stroke="#CDDC37" stroke-width="72" stroke-miterlimit="10" d="M833.078,1069"/>
<path fill="none" stroke="#CDDC37" stroke-width="72" stroke-miterlimit="10" d="M349.188,1069"/>
<line fill="none" stroke="#ECEFF0" stroke-width="72" stroke-miterlimit="10" x1="903.987" y1="1069" x2="1387.878" y2="1069"/>
<line fill="none" stroke="#ECEFF0" stroke-width="72" stroke-miterlimit="10" x1="902.121" y1="1345" x2="1386.012" y2="1345"/>
<line fill="none" stroke="#ECEFF0" stroke-width="72" stroke-miterlimit="10" x1="905.987" y1="793" x2="1389.878" y2="793"/>
</svg>
