<?xml version="1.0" encoding="utf-8"?>
<!-- Generator: Adobe Illustrator 16.0.0, SVG Export Plug-In . SVG Version: 6.00 Build 0)  -->
<!DOCTYPE svg PUBLIC "-//W3C//DTD SVG 1.1//EN" "http://www.w3.org/Graphics/SVG/1.1/DTD/svg11.dtd">
<svg version="1.1" id="Layer_1" xmlns="http://www.w3.org/2000/svg" xmlns:xlink="http://www.w3.org/1999/xlink" x="0px" y="0px"
	 width="1728px" height="1728px" viewBox="0 0 1728 1728" enable-background="new 0 0 1728 1728" xml:space="preserve">
<g>
	<path fill="none" stroke="#CDDC37" stroke-width="72" stroke-miterlimit="10" d="M553.078,172.266H860c79.2,0,144,64.8,144,144
		V1065c0,79.2-64.8,144-144,144H318c-79.2,0-144-64.8-144-144V553.079"/>
</g>
<polyline fill="none" stroke="#CDDC37" stroke-width="72" stroke-miterlimit="10" points="174,553.079 174,402.65 419.392,172.266 
	553.078,172.266 "/>
<g>
	<g>
		<path fill="none" stroke="#00ABC0" stroke-width="72" stroke-miterlimit="10" d="M1103.078,518.602H1410c79.2,0,144,64.8,144,144
			v748.734c0,79.2-64.8,144-144,144H868c-79.2,0-144-64.8-144-144V899.414"/>
	</g>
	<polyline fill="none" stroke="#00ABC0" stroke-width="72" stroke-miterlimit="10" points="724,899.414 724,748.986 
		969.392,518.602 1103.078,518.602 	"/>
</g>
<path fill="none" stroke="#000000" stroke-width="72" stroke-miterlimit="10" d="M1413.925,425.065"/>
<path fill="none" stroke="#000000" stroke-width="72" stroke-miterlimit="10" d="M1208.056,236.562"/>
<path fill="none" stroke="#000000" stroke-width="72" stroke-miterlimit="10" d="M1450.977,252.29"/>
<g>
	<path fill="none" stroke="#000000" stroke-width="72" stroke-miterlimit="10" d="M384.483,1498.813H282.055
		c-39.6,0-80.112-7.493-90.027-16.651S174,1434.506,174,1396.611s0-68.898,0-68.898"/>
</g>
<polygon fill="none" stroke="#000000" stroke-width="72" stroke-miterlimit="10" points="384.483,1528.547 384.483,1471.154 
	434.187,1499.852 "/>
<g>
	<path fill="none" stroke="#000000" stroke-width="72" stroke-miterlimit="10" d="M1343.518,227.297h102.428
		c39.6,0,80.112,7.493,90.027,16.651S1554,291.604,1554,329.498s0,68.898,0,68.898"/>
</g>
<polygon fill="none" stroke="#000000" stroke-width="72" stroke-miterlimit="10" points="1343.518,197.563 1343.518,254.955 
	1293.813,226.258 "/>
</svg>
