<?xml version="1.0" encoding="utf-8"?>
<!-- Generator: Adobe Illustrator 16.0.0, SVG Export Plug-In . SVG Version: 6.00 Build 0)  -->
<!DOCTYPE svg PUBLIC "-//W3C//DTD SVG 1.1//EN" "http://www.w3.org/Graphics/SVG/1.1/DTD/svg11.dtd">
<svg version="1.1" id="Layer_1" xmlns="http://www.w3.org/2000/svg" xmlns:xlink="http://www.w3.org/1999/xlink" x="0px" y="0px"
	 width="1728px" height="1728px" viewBox="0 0 1728 1728" enable-background="new 0 0 1728 1728" xml:space="preserve">
<circle fill="#CDDC37" stroke="#000000" stroke-width="72" stroke-miterlimit="10" cx="1174.922" cy="564.875" r="239.984"/>
<g>
	<path fill="#00ACC1" d="M796.922,1236.953c0,0,0-76.05,0-169s97.2-169,216-169h324c118.8,0,216,76.05,216,169s0,169,0,169"/>
	<path fill="none" stroke="#000000" stroke-width="72" stroke-miterlimit="10" d="M796.922,1236.953c0,0,0-76.05,0-169
		s97.2-169,216-169h324c118.8,0,216,76.05,216,169s0,169,0,169"/>
</g>
<circle fill="none" stroke="#ECEFF0" stroke-width="36" stroke-miterlimit="10" cx="1174.922" cy="564.875" r="293.574"/>
<g>
	<path fill="none" stroke="#ECEFF0" stroke-width="36" stroke-miterlimit="10" d="M748.444,1238.906c0,0,0-85.342,0-189.648
		s97.2-189.648,216-189.648H1385.4c118.8,0,216,85.342,216,189.648s0,189.648,0,189.648"/>
</g>
<circle fill="#CDDC37" stroke="#000000" stroke-width="72" stroke-miterlimit="10" cx="538" cy="564.875" r="239.984"/>
<g>
	<path fill="#00ACC1" d="M160,1236.953c0,0,0-76.05,0-169s97.2-169,216-169h324c118.8,0,216,76.05,216,169s0,169,0,169"/>
	<path fill="none" stroke="#000000" stroke-width="72" stroke-miterlimit="10" d="M160,1236.953c0,0,0-76.05,0-169s97.2-169,216-169
		h324c118.8,0,216,76.05,216,169s0,169,0,169"/>
</g>
<circle fill="none" stroke="#ECEFF0" stroke-width="36" stroke-miterlimit="10" cx="538" cy="564.875" r="293.574"/>
<g>
	<path fill="none" stroke="#ECEFF0" stroke-width="36" stroke-miterlimit="10" d="M111.522,1238.906c0,0,0-85.342,0-189.648
		s97.2-189.648,216-189.648h420.957c118.8,0,216,85.342,216,189.648s0,189.648,0,189.648"/>
</g>
<circle fill="#CDDC37" stroke="#000000" stroke-width="72" stroke-miterlimit="10" cx="864" cy="757" r="239.984"/>
<g>
	<path fill="#00ACC1" d="M486,1439.078c0,0,0-76.05,0-169s97.2-169,216-169h324c118.8,0,216,76.05,216,169s0,169,0,169"/>
	<path fill="none" stroke="#000000" stroke-width="72" stroke-miterlimit="10" d="M486,1439.078c0,0,0-76.05,0-169s97.2-169,216-169
		h324c118.8,0,216,76.05,216,169s0,169,0,169"/>
</g>
<g>
	<path fill="none" stroke="#ECEFF0" stroke-width="36" stroke-miterlimit="10" d="M437.522,1439.078c0,0,0-84.002,0-186.672
		s97.2-186.672,216-186.672h420.957c118.8,0,216,84.002,216,186.672s0,186.672,0,186.672"/>
</g>
<circle fill="#CDDC37" stroke="#000000" stroke-width="36" stroke-miterlimit="10" cx="760.219" cy="725.339" r="14.6"/>
<circle fill="#CDDC37" stroke="#000000" stroke-width="36" stroke-miterlimit="10" cx="968.793" cy="725.339" r="14.6"/>
<circle fill="#CDDC37" stroke="#000000" stroke-width="36" stroke-miterlimit="10" cx="1105" cy="527.016" r="14.6"/>
<circle fill="#CDDC37" stroke="#000000" stroke-width="36" stroke-miterlimit="10" cx="1313.575" cy="527.016" r="14.6"/>
<circle fill="#CDDC37" stroke="#000000" stroke-width="36" stroke-miterlimit="10" cx="415" cy="527.016" r="14.6"/>
<circle fill="#CDDC37" stroke="#000000" stroke-width="36" stroke-miterlimit="10" cx="623.575" cy="527.016" r="14.6"/>
<circle fill="none" stroke="#ECEFF0" stroke-width="36" stroke-miterlimit="10" cx="864" cy="757" r="293.574"/>
</svg>
