<?xml version="1.0" encoding="utf-8"?>
<!-- Generator: Adobe Illustrator 16.0.0, SVG Export Plug-In . SVG Version: 6.00 Build 0)  -->
<!DOCTYPE svg PUBLIC "-//W3C//DTD SVG 1.1//EN" "http://www.w3.org/Graphics/SVG/1.1/DTD/svg11.dtd">
<svg version="1.1" id="Layer_1" xmlns="http://www.w3.org/2000/svg" xmlns:xlink="http://www.w3.org/1999/xlink" x="0px" y="0px"
	 width="1728px" height="1728px" viewBox="0 0 1728 1728" enable-background="new 0 0 1728 1728" xml:space="preserve">
<line fill="none" stroke="#000000" stroke-width="72" stroke-miterlimit="10" x1="345.516" y1="451" x2="1382.484" y2="451"/>
<line fill="none" stroke="#000000" stroke-width="72" stroke-miterlimit="10" x1="344.516" y1="589" x2="1381.484" y2="589"/>
<polyline fill="none" stroke="#CDDC37" stroke-width="72" stroke-miterlimit="10" points="373,1487.703 171,1487.703 171,1280.352 
	"/>
<g>
	<path fill="none" stroke="#CDDC37" stroke-width="72" stroke-miterlimit="10" d="M171,1313.297c0,0,0-54.066,0-120.148
		S235.8,1073,315,1073h1096c79.2,0,144,64.8,144,144v126.703c0,79.2-64.8,144-144,144H345.516"/>
</g>
<polygon fill="none" stroke="#000000" stroke-width="72" stroke-miterlimit="10" points="384.081,1262.672 414.704,1280.352 
	384.081,1298.031 "/>
<line fill="none" stroke="#000000" stroke-width="72" stroke-miterlimit="10" x1="553.078" y1="1280.352" x2="1382.484" y2="1280.352"/>
<polyline fill="none" stroke="#00ACC1" stroke-width="72" stroke-miterlimit="10" points="1555,589 1555,795 1356.999,795 "/>
<g>
	<path fill="none" stroke="#00ACC1" stroke-width="72" stroke-miterlimit="10" d="M1382.483,795H315c-79.2,0-144-64.8-144-144V385
		c0-79.2,64.8-144,144-144h1096c79.2,0,144,64.8,144,144v237.266"/>
</g>
</svg>
